<?xml version="1.0" encoding="iso-8859-1"?>
<!-- Generator: Adobe Illustrator 19.0.0, SVG Export Plug-In . SVG Version: 6.00 Build 0)  -->
<svg xmlns="http://www.w3.org/2000/svg" xmlns:xlink="http://www.w3.org/1999/xlink" version="1.1" id="Layer_1" x="0px" y="0px" viewBox="0 0 480 480" style="enable-background:new 0 0 480 480;" xml:space="preserve" width="512px" height="512px">
<g>
	<g>
		<g>
			<path d="M207.847,363.618c4.652,3.44,16.871,21.792,26.718,40.222c1.745,3.266,5.142,5.288,8.818,5.288     c0.164,0,0.33-0.004,0.495-0.012c3.863-0.191,7.271-2.593,8.749-6.167c7.476-18.084,17.503-36.24,21.904-39.782     c86.217-16.427,148.687-91.95,148.687-179.962C423.218,82.185,341.023,0,239.994,0C138.971,0,56.782,82.185,56.782,183.204     c0,43.477,15.504,85.634,43.656,118.706C128.044,334.34,166.144,356.225,207.847,363.618z M239.994,20     c90.002,0,163.224,73.213,163.224,163.204c0,78.704-56.064,146.195-133.308,160.48c-5.834,1.079-12.911,5.307-25.085,28.742     c-0.846,1.628-1.663,3.247-2.444,4.828c-1.078-1.779-2.209-3.614-3.375-5.458c-13.623-21.55-20.566-26.667-26.777-27.715     c-78.483-13.448-135.447-81.106-135.447-160.876C76.782,93.213,149.998,20,239.994,20z" fill="#FFFFFF"/>
			<path d="M321.906,371.222c-5.38-1.203-10.736,2.183-11.943,7.572c-1.208,5.389,2.183,10.737,7.572,11.944     c38.869,8.707,56.573,22.034,56.573,30.731c0,5.959-9.236,16.04-35.266,24.837C312.718,455.137,277.791,460,240.495,460     c-37.302,0-72.233-4.863-98.359-13.693c-26.028-8.797-35.264-18.878-35.264-24.837c0-8.013,15.827-20.592,50.576-29.275     c5.358-1.339,8.616-6.768,7.277-12.126c-1.339-5.358-6.77-8.613-12.126-7.277c-42.385,10.592-65.727,27.88-65.727,48.679     c0,12.44,8.477,30.135,48.86,43.785C163.867,474.763,201.072,480,240.495,480c39.416,0,76.618-5.237,104.752-14.746     c40.385-13.65,48.861-31.344,48.861-43.785C394.108,399.497,368.467,381.652,321.906,371.222z" fill="#FFFFFF"/>
			<path d="M240.009,302.109c64.627,0,117.204-52.582,117.204-117.213S304.636,67.683,240.009,67.683     c-64.64,0-117.229,52.582-117.229,117.213S175.369,302.109,240.009,302.109z M240.009,87.683     c53.599,0,97.204,43.61,97.204,97.213c0,53.603-43.605,97.213-97.204,97.213c-53.612,0-97.229-43.61-97.229-97.213     C142.78,131.293,186.397,87.683,240.009,87.683z" fill="#FFFFFF"/>
			<path d="M191.957,199.763h41.676v41.675c0,5.523,4.477,10,10,10s10-4.477,10-10v-41.675h41.68c5.523,0,10-4.477,10-10     s-4.477-10-10-10h-41.68v-41.675c0-5.523-4.477-10-10-10s-10,4.477-10,10v41.675h-41.676c-5.523,0-10,4.477-10,10     S186.434,199.763,191.957,199.763z" fill="#FFFFFF"/>
		</g>
	</g>
</g>
<g>
</g>
<g>
</g>
<g>
</g>
<g>
</g>
<g>
</g>
<g>
</g>
<g>
</g>
<g>
</g>
<g>
</g>
<g>
</g>
<g>
</g>
<g>
</g>
<g>
</g>
<g>
</g>
<g>
</g>
</svg>
