<?xml version="1.0" encoding="iso-8859-1"?>
<!-- Generator: Adobe Illustrator 19.0.0, SVG Export Plug-In . SVG Version: 6.00 Build 0)  -->
<svg xmlns="http://www.w3.org/2000/svg" xmlns:xlink="http://www.w3.org/1999/xlink" version="1.1" id="Layer_1" x="0px" y="0px" viewBox="0 0 512 512" style="enable-background:new 0 0 512 512;" xml:space="preserve" width="512px" height="512px">
<g>
	<g>
		<path d="M256,0C147.839,0,59.843,87.995,59.843,196.157c0,83.307,52.384,157.2,130.686,184.903L255.999,512l65.471-130.94    c78.303-27.703,130.687-101.596,130.687-184.903C452.158,87.995,364.161,0,256,0z M313.401,367.266l-3.069,1.029L256,476.96    l-54.332-108.665l-3.069-1.029c-73.62-24.688-123.085-93.452-123.085-171.109c0-99.52,80.966-180.486,180.486-180.486    c99.522,0,180.487,80.967,180.487,180.486C436.487,273.813,387.023,342.577,313.401,367.266z" fill="#FFFFFF"/>
	</g>
</g>
<g>
	<g>
		<path d="M256,40.433c-84.581,0-153.394,68.813-153.394,153.395S171.419,347.222,256,347.222s153.394-68.813,153.394-153.394    S340.581,40.433,256,40.433z M256,331.55c-75.941,0-137.723-61.783-137.723-137.723S180.059,56.103,256,56.103    s137.723,61.783,137.723,137.724S331.942,331.55,256,331.55z" fill="#FFFFFF"/>
	</g>
</g>
<g>
	<g>
		<path d="M256,64.692c-71.205,0-129.134,57.93-129.134,129.135S184.796,322.961,256,322.961    c71.205,0,129.134-57.93,129.134-129.134C385.135,122.622,327.205,64.692,256,64.692z M256,307.291    c-62.564,0-113.463-50.9-113.463-113.463c0-62.564,50.9-113.464,113.463-113.464c62.564,0,113.463,50.9,113.463,113.464    C369.464,256.391,318.564,307.291,256,307.291z" fill="#FFFFFF"/>
	</g>
</g>
<g>
	<g>
		<path d="M305.406,116.116c-18.819-18.819-49.442-18.817-68.26,0.001c-9.117,9.117-14.138,21.238-14.138,34.132    c0,10.241,3.178,19.989,9.05,28.137l-6.349,6.349l11.08,11.08l6.352-6.352c8.374,6.015,18.251,9.03,28.134,9.03    c12.359,0,24.722-4.706,34.13-14.115h0.001C324.226,165.558,324.226,134.936,305.406,116.116z M294.328,173.298    c-12.712,12.711-33.392,12.709-46.101,0c-6.157-6.156-9.548-14.343-9.548-23.05c0-8.708,3.391-16.894,9.548-23.05    c6.354-6.355,14.703-9.532,23.05-9.532s16.694,3.177,23.049,9.532C307.037,139.908,307.037,160.588,294.328,173.298z" fill="#FFFFFF"/>
	</g>
</g>
<g>
	<g>
		
			<rect x="170.316" y="211.026" transform="matrix(0.7071 -0.7071 0.7071 0.7071 -95.3998 207.4066)" width="64.692" height="15.67" fill="#FFFFFF"/>
	</g>
</g>
<g>
	<g>
		<rect x="224.56" y="267.779" width="16.715" height="15.671" fill="#FFFFFF"/>
	</g>
</g>
<g>
	<g>
		<rect x="248.588" y="267.779" width="15.671" height="15.671" fill="#FFFFFF"/>
	</g>
</g>
<g>
	<g>
		<rect x="271.571" y="267.779" width="16.715" height="15.671" fill="#FFFFFF"/>
	</g>
</g>
<g>
</g>
<g>
</g>
<g>
</g>
<g>
</g>
<g>
</g>
<g>
</g>
<g>
</g>
<g>
</g>
<g>
</g>
<g>
</g>
<g>
</g>
<g>
</g>
<g>
</g>
<g>
</g>
<g>
</g>
</svg>
